<svg width="1600" height="1000" viewBox="0 0 1600 1000" fill="none" xmlns="http://www.w3.org/2000/svg">
  <rect width="1600" height="1000" fill="url(#baseGrad)" />
  <g opacity="0.48">
    <path d="M0 220C220 170 390 240 560 280C740 322 890 290 1040 240C1190 190 1360 130 1600 210" stroke="#6CA8FF" stroke-width="2"/>
    <path d="M0 540C200 480 360 550 540 610C700 662 860 640 1060 580C1280 512 1420 500 1600 550" stroke="#7FC7FF" stroke-width="2"/>
    <path d="M0 820C210 760 380 820 560 860C760 906 910 880 1120 828C1300 782 1460 770 1600 812" stroke="#8FD8FF" stroke-width="2"/>
  </g>
  <g opacity="0.78">
    <circle cx="300" cy="280" r="4" fill="#9AC6FF"/>
    <circle cx="520" cy="340" r="4" fill="#9AC6FF"/>
    <circle cx="760" cy="300" r="4" fill="#9AC6FF"/>
    <circle cx="980" cy="360" r="4" fill="#9AC6FF"/>
    <circle cx="1180" cy="320" r="4" fill="#9AC6FF"/>
    <circle cx="420" cy="620" r="4" fill="#B9DDFF"/>
    <circle cx="660" cy="680" r="4" fill="#B9DDFF"/>
    <circle cx="900" cy="650" r="4" fill="#B9DDFF"/>
    <circle cx="1120" cy="700" r="4" fill="#B9DDFF"/>
  </g>
  <g opacity="0.26">
    <rect x="160" y="140" width="420" height="220" rx="16" fill="url(#gradA)"/>
    <rect x="780" y="520" width="520" height="260" rx="20" fill="url(#gradB)"/>
    <rect x="430" y="760" width="320" height="120" rx="16" fill="url(#gradC)"/>
  </g>
  <defs>
    <linearGradient id="baseGrad" x1="0" y1="0" x2="1600" y2="1000" gradientUnits="userSpaceOnUse">
      <stop stop-color="#F4F9FF"/>
      <stop offset="0.55" stop-color="#E7F2FF"/>
      <stop offset="1" stop-color="#DCEBFF"/>
    </linearGradient>
    <linearGradient id="gradA" x1="160" y1="140" x2="580" y2="360" gradientUnits="userSpaceOnUse">
      <stop stop-color="#A3CCFF"/>
      <stop offset="1" stop-color="#6FA9FF" stop-opacity="0.24"/>
    </linearGradient>
    <linearGradient id="gradB" x1="780" y1="520" x2="1300" y2="780" gradientUnits="userSpaceOnUse">
      <stop stop-color="#A8D8FF"/>
      <stop offset="1" stop-color="#6AAFFF" stop-opacity="0.24"/>
    </linearGradient>
    <linearGradient id="gradC" x1="430" y1="760" x2="750" y2="880" gradientUnits="userSpaceOnUse">
      <stop stop-color="#C2E5FF"/>
      <stop offset="1" stop-color="#7DB8FF" stop-opacity="0.18"/>
    </linearGradient>
  </defs>
</svg>
